<?xml version="1.0" encoding="utf-8"?>
<!-- Generator: Adobe Illustrator 24.0.3, SVG Export Plug-In . SVG Version: 6.00 Build 0)  -->
<svg version="1.1" id="Layer_1" xmlns="http://www.w3.org/2000/svg" xmlns:xlink="http://www.w3.org/1999/xlink" x="0px" y="0px"
	 viewBox="0 0 495.6 192.3" style="enable-background:new 0 0 495.6 192.3;" xml:space="preserve">
<style type="text/css">
	.st0{fill:#003239;}
	.st1{fill:#E54040;}
	.st2{fill:#F69389;}
</style>
<g>
	<g>
		<path class="st0" d="M96.2,0C43.1,0,0,43.1,0,96.2c0,53,43.1,96.2,96.2,96.2c53,0,96.2-43.1,96.2-96.2C192.3,43.1,149.2,0,96.2,0z
			 M181.6,116c-1.4,0.1-2.8,0.3-4.3,0.4c0-0.1,0-0.2,0-0.2c1.5-0.2,2.9-0.4,4.4-0.5C181.7,115.7,181.6,115.8,181.6,116z
			 M137.8,173.3c-0.1-0.1-0.2-0.2-0.3-0.3c0.1-0.1,0.1-0.2,0.1-0.4c0.4,0,0.9,0,1.3,0C138.6,172.9,138.2,173.1,137.8,173.3z
			 M50.3,170.9c20.5,0.3,41,0.6,61.5,0.9c-0.5,2.3-1,2.7-3.3,2.7c-14.3,0-28.7,0.1-43,0.1c-2.4,0-4.8,0-7.1,0c0,0.2,0,0.3,0,0.5
			c17,0,33.9,0,51.2,0c-0.8,1-1.3,1.6-1.9,2.4c0.6,0,1,0,1.3,0c6.6,0,13.2,0.1,19.8,0.1c-10.1,4-21,6.3-32.5,6.3
			C79.4,183.9,63.7,179.1,50.3,170.9z M37.7,149.2c0-0.3,0.7-0.6,1.2-0.7c0.7-0.2,1.4-0.4,2.1-0.5c6.8-1.7,13.5-3.5,20.4-5.1
			c13.4-3.1,27-5.6,40.7-7.5c1.4-0.2,2.7-0.3,4.3-0.5c0,6.6,0,13,0,19.5c-0.3,0-0.5,0.1-0.7,0c-4.5-1.9-9-1.4-13.7-0.7
			c-3,0.5-5.9,0.9-8.9,1.1c-1.4,0.1-2.9-0.3-4.4-0.6c-0.4-0.1-3.9-1.2-4.9-1.5c0,0-0.1,0-0.2-0.1c0,0,0,0,0,0c0,0,0,0,0,0
			c-0.3-0.1-0.7-0.1-1.2-0.2c-0.7,0-1.4-0.2-2.1-0.1c-5.3,0.5-10.6,1.1-15.9,1.6c-0.9,0.1-1.8,0-2.7-0.1c-3.9-0.6-7.6,0.1-11.3,0.9
			c-0.2,0.1-0.4,0.1-0.7,0.2c-0.4,0.1-0.8,0.2-1.6,0.4C37.8,153.2,37.7,151.2,37.7,149.2z M34.7,106.2c0.3-0.1,0.6-0.2,1-0.3
			c-0.2,1.5-0.3,2.7-0.5,3.9c-0.2,0.1-0.2,0.1-0.3,0.1c-4,0.3-4,0.3-5.2-3.4c-0.2-0.7-0.4-1.4-0.6-2.3c1.5,0,2.8,0.1,4,0
			c1.1-0.1,1.7,0.2,1.5,1.4C34.7,105.8,34.7,106,34.7,106.2z M108,79.9c0,26.5,0,53,0,79.5c-0.5,0-0.9,0-1.5,0
			c0.3-26.5,0.7-53,1-79.5c0.1-9.3,0.2-18.6,0.4-27.9c0.1,0,0.1,0,0.1,0C108,61.4,108,70.7,108,79.9z M106.1,159.4
			c-2,0.5-2,0.5-2,2.5c0,0.6,0,1.1,0,1.7c0,0.6-0.1,1-0.9,1.1c-0.3,0-0.7,0.5-0.8,0.9c-0.2,0.7-0.2,1.4-0.3,2.3
			c-1.2-0.8-2.2-1.4-3.2-2.1c0,0-0.1,0.1-0.1,0.1c0.8,0.7,1.5,1.4,2.3,2.1c-0.1,0.1-0.1,0.2-0.2,0.3c-1.9-0.4-3.7-0.7-5.6-1.1
			c-1-0.2-2-0.4-3-0.7c-2.6-0.9-5.1-0.6-7.5,0.5c-0.9,0.4-1.9,0.6-2.9,1c-1.8,0.6-3.5,0.8-5.3,0c-0.7-0.3-1.6-0.4-2.2-0.2
			c-1.5,0.5-2.9,0.2-4.2-0.5c-1.6-0.9-3.2-1-4.8-0.3c-2.1,0.9-4.1,0.8-6-0.7c-0.8-0.7-1.8-0.7-2.8-0.4c-1.5,0.4-2.9,0.8-4.4,1.1
			c-0.9,0.1-1.9,0-2.7-0.3c-1-0.4-1.9-0.7-3.1-0.3c-2,0.6-3.5-0.4-4.1-2.4c-0.8-2.7-1.4-5.4-3.4-7.8c0.9-0.3,1.6-0.5,2.3-0.7
			c3.3-1,6.7-1.2,10.2-1.1c4,0.2,8-0.4,12-0.7c2.3-0.2,9.9-0.4,10.3-0.7c3.8,1.7,10.9,4.6,14.6,6.3c0-0.1,0.1-0.1,0.1-0.1
			c-2-1.1-4-2.2-6.3-3.5c1.4-0.2,2.5-0.4,3.7-0.6c3.7-0.5,7.5-1,11.2-1.5c3-0.4,5.8,0.7,8.7,1.4c0.2,0.1,0.5,0.4,0.5,0.7
			C106.1,156.8,106.1,158.1,106.1,159.4z M97.7,64.7c3-8.4,5.9-16.8,8.8-25.2c0.1-0.4,0.3-0.8,0.7-1.1c0,0.5,0.1,0.9,0.1,1.3
			c-0.1,11.4-0.2,22.8-0.3,34.2c0,1-0.3,2-0.7,3c-0.5,1.2-1,2.4-1.5,3.6c-3.3,7.9-6.6,15.8-10.2,23.5c-4.4,9.4-10.7,17.5-18.2,24.7
			c-3,2.9-6.6,3.5-10.3,4.5c-1.4,0.4-2.9,0.6-4.6,1c0.3-0.5,0.5-0.7,0.6-0.9c9.8-10.8,17-23.3,23.3-36.4c1.9-3.9,3.6-8,5.1-12
			C93,78.2,95.3,71.4,97.7,64.7z M106.5,81c0,0.4,0.1,0.8,0.1,1.2c0,13.9,0,27.8,0,41.7c0,0.8-0.2,1.2-1,1.4
			c-9.4,1.8-18.9,3.6-28.3,5.4c-0.4,0.1-0.8,0.1-1.1,0.1c-0.1-0.1-0.1-0.2-0.2-0.2c0.8-0.8,1.7-1.5,2.5-2.3
			c6.6-6.4,11.9-13.8,16-21.9c3.9-7.7,7.3-15.7,11-23.5C105.8,82.2,106,81.6,106.5,81z M56.9,135c-2.6,1.6-5.3,2.2-8.1,1.7
			c-1.8-0.3-3.4-1-4.7-1.9c-2.4-1.6-4.1-4.1-5.4-7c-2-4.6-2.5-9.4-2-14.3c0.2-2.1,0.3-4.2,0.5-6.7c2.2,7.5,5.4,14.1,10.1,19.7
			C50,129.7,53.1,132.6,56.9,135z M55.8,136.6c-0.7,1.1-5.9,2.3-6.8,1.6C51.2,137.7,53.3,137.2,55.8,136.6z M37.6,142.4
			c-1.4,0.6-2.9,1.2-4.3,1.8c-0.1-0.2-0.2-0.4-0.2-0.6c1.4-0.6,2.9-1.2,4.3-1.8C37.5,142,37.5,142.2,37.6,142.4z M48.3,138
			c-1.9,0.6-3.8,1.2-5.7,1.8c-1.6,0.5-3.2,1-4.8,1.5c0-4.1,0-8.2,0-12.5c1.6,2.8,3.6,5.1,6.1,6.8C45.1,136.5,46.6,137.4,48.3,138z
			 M29.4,124c0.6,0,1.1,0,1.8,0c-0.6,2.4-1.1,4.7-1.6,7.2C28.2,129.5,28.2,128.8,29.4,124z M28.8,114c0-0.2,0.6-0.5,0.9-0.5
			c0.4,0.1,0.9,0.3,1.1,0.6c0.6,1.2,1.2,2.4,1.6,3.6c0.7,1.9,0.1,2.8-2.1,2.8c-1.4,0.4-2.1-0.6-2.1-1.8
			C28.1,117.1,28.5,115.5,28.8,114z M32.9,115.5c-0.4-0.8-0.6-1.2-1-1.9c0.5,0,0.9-0.1,1.6-0.1C33.3,114.2,33.1,114.7,32.9,115.5z
			 M29.7,132.3c0.3-1.2,0.6-2.2,0.9-3.2c0.3-1.2,0.6-2.4,0.9-3.6c0.2-0.8,0.2-1.5,1.4-1.5c1.2,0,1.3,0.6,1.6,1.5c0.7,2,0.8,4,0,6
			c-0.2,0.6-0.5,0.9-1.2,0.9C32.2,132.2,31,132.3,29.7,132.3z M34.6,120.1c-1.9-1.8-2-3.9-0.1-6.2C36.1,116,35.6,118.1,34.6,120.1z
			 M28.4,141.1c0-0.2,0.1-0.3,0.1-0.5c1.1-5.1,0-3.8,4.9-4c0.7,0,1,0.3,1.1,1c0,0.1,0,0.2,0,0.3c0.6,4.5,0.6,4.5-3.6,6.3
			c-0.8,0.4-1.7,0.8-2.9,1.3C28.1,143.7,28.2,142.4,28.4,141.1z M42.3,140.9c-0.3,0.1-0.7,0.2-1,0.3c-0.1-0.2-0.1-0.4-0.2-0.5
			c0.4-0.2,0.9-0.3,1.3-0.5c1.9-0.6,3.8-1.1,5.8-1.7c0.1,0.2,0.1,0.4,0.2,0.6C46.4,139.7,44.3,140.3,42.3,140.9z M26.4,149.2
			c5-1.7,10.1-3.3,15.1-4.7c17.4-5.1,35.2-8.9,53.3-11.6c-6.1,1.2-12.3,2.4-18.4,3.7c-11.8,2.5-23.5,5.3-35.1,8.7
			c-4.3,1.2-8.5,2.5-12.7,3.9c-0.9,0.3-1.4,0.5-1.6,0.8C26.8,149.7,26.6,149.5,26.4,149.2z M129.3,65.8c3.2,5.1,6.6,10.1,10,15.1
			c6.9,9.9,14.3,19.4,22.5,28.4c0.8,0.9,1.5,1.9,2.5,2.6c1.7,1.3,1.6,3,1.3,4.9c-12.5,1.8-24.9,3.6-37.5,5.4c0-14.4,0-28.7,0-43.1
			c0-4.9,0-9.8,0-14.7c0.1,0,0.2-0.1,0.3-0.1C128.7,64.9,129,65.3,129.3,65.8z M165.5,117.2c0.6,0.9,0.1,1.1-0.6,1.2
			c-2.9,0.4-5.9,0.8-8.8,1.2c-9.4,1.3-18.9,2.5-28.3,3.8c-1.1,0.2-2.2,0.2-3.3,0.4c0-0.1,0-0.2,0-0.2
			C138.1,121.4,151.8,119.3,165.5,117.2z M138.3,127.1c4.4-1.2,25.3-3.3,26.4-2.4C155.9,125.5,147.1,126.3,138.3,127.1z
			 M134.7,172.7c-0.1,1.3-0.7,1.7-1.8,1.6c-3-0.1-5.9,0-8.9,0c-0.5,0-0.9,0-1.4,0c-0.4-1.2-0.1-1.6,1-1.6
			C127.3,172.7,131,172.7,134.7,172.7z M126,176.2c-0.6-0.7-2.2,0.5-2.2-1.2c1.4,0,2.8,0,4.1,0c0.1,0.1,0.1,0.2,0.2,0.3
			C127.3,175.6,126.2,176.4,126,176.2z M112.8,66.6c1-2.4,2-4.7,3-7.1c0.3-0.7,0.7-1.1,1.5-1c1.7,0.1,3.3,0,5,0.1c0.4,0,1,0.5,1,0.8
			c0.1,4.4,0,8.8,0,13.3c-2.9,0-5.6,0-8.2,0c-0.5,0-0.9,0-1.4,0c-1.8,0-2.4-0.6-2.1-2.5C111.9,68.9,112.4,67.7,112.8,66.6z
			 M119.4,49.3c0.7,0.8,1.2,1.4,2,2.3c-1.1,0-1.9,0-2.8,0C118.9,50.8,119.1,50.2,119.4,49.3z M116.3,137.1c1.6,1.6,3,3.1,4.5,4.7
			c-2.7,0-5.4,0-8.4,0C113.8,140,115.1,138.5,116.3,137.1z M122.3,139.7c-0.1,0.1-0.2,0.1-0.3,0.2c-1.4-1.6-2.8-3.2-4.4-5
			c1.6-0.8,3-1.6,4.7-2.4C122.3,135.1,122.3,137.4,122.3,139.7z M119.9,144.6c-1.2,1.4-2.3,2.6-3.3,3.8c-1.3-1.3-2.5-2.5-3.7-3.8
			C115.1,144.6,117.3,144.6,119.9,144.6z M122.1,145.3c0.1,0.1,0.2,0.1,0.2,0.1c0,3,0,6.1,0,9.1c-0.1,0.1-0.2,0.2-0.4,0.3
			c-1.4-1.4-2.8-2.7-4.3-4.1C119.3,148.8,120.7,147,122.1,145.3z M125.3,129c-1,0.1-2,0.3-3-0.1c0-0.1,0-0.2,0-0.4c1,0,2,0,3,0
			C125.3,128.7,125.3,128.9,125.3,129z M111.3,134.9c0-0.2,0.6-0.5,0.9-0.5c0.9,0,1.9-0.3,2.4,0.7c0.1,0.3,0,0.8-0.2,1.1
			c-0.9,1.2-1.8,2.2-2.7,3.3c-0.1,0-0.2-0.1-0.4-0.1C111.3,137.9,111.2,136.4,111.3,134.9z M111.3,147.1c1.5,1.2,2.7,2.3,4,3.4
			c-1.3,1.4-2.5,2.7-4,4.3C111.3,152.1,111.3,149.8,111.3,147.1z M113.6,155.8c0.9-1.1,1.8-2.1,2.8-3.3c0.8,1,1.5,2,2.5,3.2
			c-2,0.3-3.7,0.6-5.8,0.9C113.4,156.1,113.4,155.9,113.6,155.8z M124.2,40.2c0,3.7,0,7.5,0,11.2c-0.2,0.1-0.3,0.2-0.5,0.2
			c-1.1-1.2-2.2-2.4-3.2-3.7c-0.2-0.2-0.2-0.6-0.1-0.9c1-2.3,2.1-4.6,3.1-7C123.8,40.1,124,40.1,124.2,40.2z M122.5,39.7
			c-1,2.1-2,3.9-3.1,6.2c-1.1-2.2-2.1-4.1-3.1-6.2C118.4,39.7,120.3,39.7,122.5,39.7z M113.5,39.6c0.4,0.1,1,0.3,1.2,0.6
			c1.2,2,2.3,4,3.5,6c0.6,1,0.5,1.8,0,2.8c-1,1.9-2.2,3.2-4.6,2.7c-0.5-0.1-1,0-1.5,0c-0.1-1.3-0.4-2.5-0.4-3.7
			c0-2.3,0.1-4.6,0.3-6.9C112.2,40.4,112.5,39.5,113.5,39.6z M112.4,59.2c0.3-1.2,1.2-0.7,2.1-0.5c-1,2.4-1.9,4.7-2.8,7
			c-0.2-0.1-0.4-0.1-0.5-0.1C111.5,63.4,111.8,61.2,112.4,59.2z M112.7,80.5c0.3-0.8,0.8-1.1,1.7-1.1c2.3,0.1,4.6,0.1,6.9,0
			c0.8,0,1.2,0.2,1.4,1c0.5,2.6,1.3,5.3,1.5,7.9c0.2,2.1-0.3,4.3-0.4,6.5c-0.1,0.6,0,1.3,0,2c-4,0-8,0-11.9,0
			c-0.2-1.9-0.4-3.7-0.6-5.6C110.9,87.6,111.3,84,112.7,80.5z M111.3,112.7c0.2-2.1,0.9-4.1,1.3-6.2c0.2-0.8,0.5-1.1,1.3-1.1
			c2.1,0.1,4.3,0.1,6.4,0c0.8,0,1.1,0.3,1.3,1c1.6,5.2,1.9,10.4,1.7,15.8c0,0.3-0.5,0.8-0.8,0.9c-3.8,0.6-7.6,1.1-11.9,1.7
			C110.8,120.6,110.9,116.6,111.3,112.7z M157.5,158.8c0,0-0.1,0-0.1,0c-4.1,0.8-7.9-0.6-11.8-1.5c-1.2-0.3-2.4-0.5-3.6-0.9
			c-3.5-1.1-6.9,0.1-10.3,0.4c-1.4,0.1-2.9,0.4-4.5,0.6c0-0.7,0-1.3,0-1.9c0-0.7,0.3-1,1-1.1c5.5-0.5,11.1-1.1,16.6-1.6
			c3-0.3,5.7,0.9,8.5,1.8c2.1,0.7,4.2,1.4,6.3,2.1C158.9,157.4,158.2,158.1,157.5,158.8z M148.2,152.8c-1.4-0.4-3.1-0.4-4.6-0.3
			c-5.2,0.4-10.3,1-15.5,1.5c-0.3,0-0.5,0.1-1,0.1c0-0.6,0-1.1,0-1.5c0-6,0-12.1,0-18.1c0-1.2,0.3-1.6,1.5-1.7
			c11.7-1.3,23.3-2.6,35-4c0.3,0,0.5,0,0.9,0c0,7.4,0,14.8,0,22.3c-1.5,1.8-3,3.6-4.7,5.4C156,155.1,152.2,153.9,148.2,152.8z
			 M166.3,110.6c0,0,0.1,0,0.1,0c0.9,0,1.7,0,2.7,0c-0.1,2.8-0.3,5.5-0.4,8.2c-0.3,6.6-0.7,13.2-0.9,19.8c-0.1,2.7-0.1,5.4-0.1,8.1
			c-0.8,1.2-1.7,2.3-2.6,3.5C165.5,137,165.9,123.9,166.3,110.6z M171.1,108.3c-0.7,0-1.6,0-2.6,0c-0.2,0-0.4,0.1-0.4,0.2
			c0,1.1-0.9,1.4-1.6,1.8c-0.3,0.2-0.6,0.4-0.8,0.8c-0.3-0.2-0.5-0.3-0.6-0.5c-7.8-9.4-15.8-18.7-23.4-28.2
			c-0.3-0.4-0.6-0.7-0.8-1.1c-4.8-6.1-8.8-12.7-12.2-19.7c-0.3-0.6-0.5-1.2-0.6-1.8c-0.3-5.7-0.6-11.4-0.8-17.1
			c-0.1-2.3,0-4.7,0.3-7.2c0.3,0.3,0.5,0.7,0.7,1c10,16.2,20.7,32,32.6,46.9c3.7,4.6,7.5,9.1,11.4,13.5c3.5,3.9,7.1,7.7,10.8,11.4
			c-0.3,2.3-0.7,4.6-1.2,6.8c-2.7,0-5.4,0-8.2,0c-0.1-1.3-0.1-2.5-0.3-3.6c-0.1-0.6-0.6-1.1-1-1.6
			C172,109.3,171.6,108.9,171.1,108.3z M183.4,105.5c-7.1-7.3-14-14.8-20.5-22.7c-12.9-15.4-24.5-31.6-34.4-49.1
			c-0.9-1.6-1.7-3.2-1.1-5.2c0.1-0.3,0-0.7,0-1c-0.7,0-1.2,0-1.8,0c-0.1,0.7-0.2,1.4-0.4,2.1c-0.5,2.1-0.9,2.7-3,2.9
			c-2.5,0.2-5.1,0.1-7.7,0c-2.1-0.1-3.3-1.2-3.8-3.2c-0.2-0.6-0.5-1.1-0.9-2c-0.3,0.7-0.5,1-0.6,1.3c-4.8,13.6-9.5,27.3-14.5,40.8
			C92.5,75,90.3,80.5,88,86c-4.3,10-9,19.9-14.3,29.5c-3.8,6.8-8.2,13-14.2,18.1c-0.7,0.6-1.2,0.8-2.1,0.2c-3.6-2.4-6.8-5.1-9.6-8.3
			c-1-1.2-2-2.4-3-3.7c-3.8-5.3-5.6-11.4-7.2-17.6c-0.4-1.4-0.7-2.7-1.1-4.3c-3.3,2.6-6.3,2.1-9.3-0.7c-0.4,1.3-1,2.5-1.1,3.6
			c-0.4,4.8-0.7,9.6-1,14.4c0,0.3,0.1,0.6,0.1,0.9c0.2,0,0.3,0,0.5,0c0.3-4.3,0.5-8.5,0.8-12.8c0.2,0.8,0.2,1.7,0.2,2.5
			c0,12,0,24.1,0,36.1c0,0.7,0.2,1.4,0.3,2.2c-0.4,0.1-0.9,0.3-1.4,0.5c0-2,0-3.8,0-5.7c0-6.4,0-12.9,0-19.3c0-0.5-0.3-0.9-0.4-1.3
			c-0.2,0-0.3,0.1-0.5,0.1c-0.2,1.3-0.4,2.6-0.6,3.8c0.1,0,0.1,0,0.2,0c0.2-0.8,0.5-1.5,0.8-2.4c0.1,0.3,0.1,0.3,0.1,0.4
			c0,7.6,0,15.3,0,22.9c0,0.3-0.1,0.7-0.2,0.8c-0.2,0.1-0.3,0.1-0.5,0.2c-10-14.2-15.8-31.5-15.8-50.1c0-48.4,39.3-87.7,87.7-87.7
			c48.4,0,87.7,39.3,87.7,87.7C183.9,99.3,183.7,102.4,183.4,105.5z"/>
		<path class="st1" d="M106.3,76.9c0.4-0.9,0.6-2,0.7-3c0.1-11.4,0.2-22.8,0.3-34.2c0-0.5,0-0.9-0.1-1.3c-0.4,0.3-0.6,0.7-0.7,1.1
			c-2.9,8.4-5.9,16.8-8.8,25.2c-2.4,6.7-4.6,13.5-7.2,20.2c4.6-1.9,9.4-3.4,14.3-4.4C105.3,79.3,105.8,78.1,106.3,76.9z"/>
		<path class="st1" d="M39.5,155c0.2-0.1,0.4-0.1,0.7-0.2c0.1-2.3,0.4-4.6,0.7-6.9c-0.7,0.2-1.4,0.4-2.1,0.5
			c-0.4,0.1-1.2,0.5-1.2,0.7c0,2,0.2,4,0.3,6.2C38.7,155.2,39.1,155.1,39.5,155z"/>
		<path class="st1" d="M107.6,80c0.2,0,0.3-0.1,0.5-0.1c0-9.3,0-18.6,0-27.8c0,0-0.1,0-0.1,0C107.8,61.4,107.7,70.7,107.6,80z"/>
		<path class="st1" d="M111.8,48c0,1.2,0.2,2.3,0.4,3.7c0.5,0,1-0.1,1.5,0c2.4,0.5,3.6-0.8,4.6-2.7c0.5-1,0.6-1.8,0-2.8
			c-1.2-2-2.3-4-3.5-6c-0.2-0.3-0.8-0.6-1.2-0.6c-1-0.1-1.4,0.8-1.5,1.5C111.9,43.4,111.8,45.7,111.8,48z"/>
		<path class="st1" d="M34.4,137.8c0-0.1,0-0.2,0-0.3c-0.1-0.6-0.3-1-1.1-1c-4.9,0.2-3.8-1.1-4.9,4c0,0.2-0.1,0.3-0.1,0.5
			c-0.1,1.3-0.2,2.7-0.4,4.3c1.2-0.5,2-0.9,2.9-1.3C35,142.3,35,142.3,34.4,137.8z"/>
		<path class="st1" d="M128.7,177.6c-6.6,0-13.2-0.1-19.8-0.1c-0.3,0-0.7,0-1.3,0c0.7-0.8,1.2-1.4,1.9-2.4c-17.2,0-34.2,0-51.2,0
			c0-0.2,0-0.3,0-0.5c2.4,0,4.8,0,7.1,0c14.3,0,28.7-0.1,43-0.1c2.4,0,2.8-0.4,3.3-2.7c-20.5-0.3-41-0.6-61.5-0.9
			c13.4,8.2,29.1,13,45.9,13C107.7,183.9,118.6,181.6,128.7,177.6z"/>
		<path class="st1" d="M113.7,72.6c0.5,0,0.9,0,1.4,0c2.7,0,5.4,0,8.2,0c0-4.5,0-8.9,0-13.3c0-0.3-0.7-0.7-1-0.8
			c-1.7-0.1-3.3,0-5-0.1c-0.8,0-1.2,0.3-1.5,1c-1,2.4-2,4.7-3,7.1c-0.5,1.1-0.9,2.3-1.1,3.5C111.3,71.9,111.9,72.6,113.7,72.6z"/>
		<path class="st1" d="M120.5,47c-0.1,0.2-0.1,0.7,0.1,0.9c1,1.3,2.1,2.5,3.2,3.7c0.2-0.1,0.3-0.1,0.5-0.2c0-3.7,0-7.5,0-11.2
			c-0.2,0-0.4-0.1-0.6-0.1C122.6,42.4,121.5,44.7,120.5,47z"/>
		<path class="st1" d="M119.4,45.8c1.1-2.2,2.1-4.1,3.1-6.2c-2.2,0-4.1,0-6.2,0C117.3,41.7,118.3,43.7,119.4,45.8z"/>
		<path class="st1" d="M119.4,49.3c-0.3,0.9-0.6,1.5-0.8,2.3c0.9,0,1.7,0,2.8,0C120.6,50.7,120.1,50,119.4,49.3z"/>
		<path class="st1" d="M34.5,131.4c0.8-2,0.7-4,0-6c-0.3-0.9-0.4-1.5-1.6-1.5c-1.2,0-1.2,0.8-1.4,1.5c-0.3,1.2-0.6,2.4-0.9,3.6
			c-0.3,1-0.6,2-0.9,3.2c1.4,0,2.5,0,3.7,0C34,132.3,34.3,132,34.5,131.4z"/>
		<path class="st1" d="M42.5,140.2c-0.4,0.1-0.9,0.3-1.3,0.5c0.1,0.2,0.1,0.4,0.2,0.5c0.3-0.1,0.7-0.2,1-0.3
			C42.4,140.7,42.4,140.5,42.5,140.2z"/>
		<path class="st1" d="M47.3,126.6c-4.7-5.6-8-12.2-10.1-19.7c-0.2,2.4-0.3,4.5-0.5,6.7c-0.5,5,0,9.8,2,14.3c1.3,2.9,3,5.4,5.4,7
			C44.9,132,46,129.3,47.3,126.6z"/>
		<path class="st1" d="M41.4,145.3c0.1-0.3,0.1-0.6,0.2-0.8c-5.1,1.5-10.1,3.1-15.1,4.7c0.2,0.3,0.4,0.5,0.6,0.8
			c0.2-0.3,0.7-0.5,1.6-0.8C32.9,147.9,37.1,146.6,41.4,145.3z"/>
		<path class="st1" d="M33.3,104.2c-1.2,0.1-2.5,0-4,0c0.2,0.9,0.4,1.6,0.6,2.3c1.2,3.8,1.2,3.8,5.2,3.4c0,0,0.1,0,0.3-0.1
			c0.1-1.2,0.3-2.5,0.5-3.9c-0.5,0.1-0.7,0.2-1,0.3c0-0.2-0.1-0.4,0-0.6C34.9,104.4,34.3,104.1,33.3,104.2z"/>
		<path class="st1" d="M43.8,135.6c-2.4-1.7-4.4-4-6.1-6.8c0,4.3,0,8.4,0,12.5c1.6-0.5,3.2-1,4.8-1.5
			C42.9,138.4,43.3,137,43.8,135.6z"/>
		<path class="st1" d="M33.1,143.6c0.1,0.2,0.2,0.4,0.2,0.6c1.4-0.6,2.9-1.2,4.3-1.8c-0.1-0.2-0.2-0.4-0.3-0.6
			C35.9,142.4,34.5,143,33.1,143.6z"/>
		<path class="st1" d="M32.9,115.5c0.3-0.8,0.4-1.3,0.7-2.1c-0.7,0.1-1.1,0.1-1.6,0.1C32.3,114.3,32.5,114.7,32.9,115.5z"/>
		<path class="st1" d="M34.6,120.1c1-2.1,1.5-4.1-0.1-6.2C32.6,116.2,32.6,118.3,34.6,120.1z"/>
		<path class="st1" d="M30.3,120.5c2.2,0,2.9-0.9,2.1-2.8c-0.5-1.2-1-2.4-1.6-3.6c-0.2-0.3-0.7-0.6-1.1-0.6c-0.3,0-0.8,0.2-0.9,0.5
			c-0.3,1.6-0.6,3.2-0.6,4.7C28.2,119.9,28.9,120.9,30.3,120.5z"/>
		<path class="st1" d="M111.7,65.6c0.9-2.3,1.9-4.6,2.8-7c-0.9-0.1-1.9-0.6-2.1,0.5c-0.5,2.1-0.8,4.2-1.2,6.4
			C111.3,65.5,111.5,65.6,111.7,65.6z"/>
		<path class="st1" d="M29.6,131.2c0.6-2.5,1.1-4.8,1.6-7.2c-0.8,0-1.3,0-1.8,0C28.2,128.8,28.2,129.5,29.6,131.2z"/>
		<path class="st1" d="M122.6,174.3c0.5,0,0.9,0,1.4,0c3,0,5.9-0.1,8.9,0c1.2,0,1.7-0.4,1.8-1.6c-3.7,0-7.4,0-11.1,0
			C122.6,172.6,122.3,173,122.6,174.3z"/>
		<path class="st1" d="M137.5,173c0.1,0.1,0.2,0.2,0.3,0.3c0.4-0.2,0.8-0.4,1.2-0.7c-0.4,0-0.9,0-1.3,0
			C137.6,172.8,137.6,172.9,137.5,173z"/>
		<path class="st1" d="M172.2,96.8c-3.9-4.4-7.8-8.9-11.4-13.5c-11.9-14.9-22.6-30.6-32.6-46.9c-0.2-0.4-0.5-0.7-0.7-1
			c-0.3,2.5-0.3,4.8-0.3,7.2c0.2,5.7,0.5,11.4,0.8,17.1c0,0.6,0.3,1.3,0.6,1.8c3.4,7,7.4,13.6,12.2,19.7
			C152.4,84.1,163.1,89.5,172.2,96.8z"/>
		<path class="st1" d="M128.1,64.5c0,4.9,0,9.8,0,14.7c3.8,0.3,7.6,0.9,11.3,1.7c-3.5-4.9-6.8-10-10-15.1c-0.3-0.5-0.6-1-1-1.5
			C128.3,64.4,128.2,64.4,128.1,64.5z"/>
		<path class="st1" d="M96.2,8.5C47.8,8.5,8.5,47.8,8.5,96.2c0,18.6,5.9,35.9,15.8,50.1c0.2-0.1,0.3-0.2,0.5-0.2
			c0.2-0.1,0.2-0.5,0.2-0.8c0-7.6,0-15.3,0-22.9c0-0.1-0.1-0.2-0.1-0.4c-0.3,0.9-0.5,1.7-0.8,2.4c-0.1,0-0.1,0-0.2,0
			c0.2-1.3,0.4-2.6,0.6-3.8c0.2,0,0.3-0.1,0.5-0.1c0.1,0.5,0.4,0.9,0.4,1.3c0,6.4,0,12.9,0,19.3c0,1.8,0,3.7,0,5.7
			c0.5-0.2,1.1-0.4,1.4-0.5c-0.1-0.8-0.3-1.5-0.3-2.2c0-12,0-24.1,0-36.1c0-0.9,0-1.7-0.2-2.5c-0.3,4.3-0.5,8.5-0.8,12.8
			c-0.2,0-0.3,0-0.5,0c0-0.3-0.1-0.6-0.1-0.9c0.3-4.8,0.6-9.6,1-14.4c0.1-1.2,0.7-2.3,1.1-3.6c3,2.8,6,3.3,9.3,0.7
			c0.4,1.6,0.8,2.9,1.1,4.3c1.6,6.2,3.4,12.3,7.2,17.6c0.9,1.3,1.9,2.5,3,3.7C56,108,70.3,93.9,88,86c2.3-5.5,4.6-11,6.6-16.5
			c5.1-13.5,9.7-27.2,14.5-40.8c0.1-0.4,0.3-0.7,0.6-1.3c0.4,0.9,0.7,1.4,0.9,2c0.6,1.9,1.8,3.1,3.8,3.2c2.6,0.1,5.2,0.2,7.7,0
			c2.1-0.2,2.6-0.8,3-2.9c0.2-0.7,0.3-1.3,0.4-2.1c0.6,0,1.1,0,1.8,0c0,0.4,0.1,0.7,0,1c-0.7,2,0.2,3.6,1.1,5.2
			c9.9,17.5,21.5,33.7,34.4,49.1c6.6,7.8,13.4,15.3,20.5,22.7c0.3-3.1,0.5-6.2,0.5-9.3C183.9,47.8,144.5,8.5,96.2,8.5z"/>
		<path class="st1" d="M123.7,175c0.1,1.7,1.6,0.6,2.2,1.2c0.2,0.2,1.3-0.6,2-0.9c-0.1-0.1-0.1-0.2-0.2-0.3
			C126.5,175,125.2,175,123.7,175z"/>
		<path class="st2" d="M128.1,79.2c0,14.3,0,28.7,0,43.1c12.6-1.8,25.1-3.6,37.5-5.4c0.3-1.9,0.4-3.5-1.3-4.9
			c-0.9-0.7-1.7-1.7-2.5-2.6c-8.2-9-15.6-18.5-22.5-28.4C135.7,80.1,131.9,79.5,128.1,79.2z"/>
		<path class="st2" d="M49,138.2c0.9,0.7,6.1-0.5,6.8-1.6C53.3,137.2,51.2,137.7,49,138.2z"/>
		<path class="st2" d="M62.1,133.3c-0.2,0.2-0.3,0.4-0.6,0.9c1.8-0.4,3.2-0.6,4.6-1c3.7-1,7.3-1.6,10.3-4.5
			c7.5-7.2,13.8-15.3,18.2-24.7c3.6-7.7,6.9-15.6,10.2-23.5c-4.9,1-9.7,2.5-14.3,4.4c-1.6,4.1-3.2,8.1-5.1,12
			C79.1,110,71.9,122.5,62.1,133.3z"/>
		<path class="st2" d="M107.6,80c-0.3,26.5-0.7,52.9-1,79.5c0.6,0,1,0,1.5,0c0-26.6,0-53.1,0-79.5C107.9,80,107.7,80,107.6,80z"/>
		<path class="st2" d="M47.7,125.5c2.8,3.2,6.1,5.9,9.6,8.3c0.9,0.6,1.3,0.4,2.1-0.2c6-5,10.5-11.2,14.2-18.1
			C78.9,105.9,83.7,96,88,86C70.3,93.9,56,108,47.7,125.5z"/>
		<path class="st2" d="M94.5,106.3c-4.1,8.1-9.4,15.6-16,21.9c-0.8,0.8-1.7,1.5-2.5,2.3c0.1,0.1,0.1,0.2,0.2,0.2
			c0.4-0.1,0.8-0.1,1.1-0.1c9.4-1.8,18.9-3.6,28.3-5.4c0.9-0.2,1-0.6,1-1.4c0-13.9,0-27.8,0-41.7c0-0.4,0-0.8-0.1-1.2
			c-0.5,0.6-0.8,1.2-1,1.8C101.9,90.7,98.4,98.6,94.5,106.3z"/>
		<path class="st2" d="M41.4,145.3c11.6-3.4,23.3-6.2,35.1-8.7c6.1-1.3,12.2-2.5,18.4-3.7c-18.1,2.7-35.9,6.5-53.3,11.6
			C41.5,144.8,41.4,145.1,41.4,145.3z"/>
		<path class="st2" d="M48.4,139.1c-0.1-0.2-0.1-0.4-0.2-0.6c-1.9,0.6-3.9,1.1-5.8,1.7c-0.1,0.2-0.1,0.5-0.2,0.7
			C44.3,140.3,46.4,139.7,48.4,139.1z"/>
		<path class="st2" d="M173.3,111.4c0.2,1.2,0.2,2.3,0.3,3.6c2.8,0,5.5,0,8.2,0c0.5-2.2,0.9-4.5,1.2-6.8c-3.7-3.7-7.3-7.5-10.8-11.4
			c-9.1-7.3-19.8-12.7-31.5-15.6c0.3,0.4,0.5,0.7,0.8,1.1c7.6,9.5,15.6,18.8,23.4,28.2c0.2,0.2,0.4,0.3,0.6,0.5
			c0.2-0.4,0.5-0.6,0.8-0.8c0.7-0.4,1.6-0.7,1.6-1.8c0-0.1,0.3-0.2,0.4-0.2c0.9,0,1.9,0,2.6,0c0.5,0.6,0.9,1.1,1.3,1.6
			C172.7,110.3,173.2,110.9,173.3,111.4z"/>
		<path class="st2" d="M177.3,116.3c1.4-0.1,2.8-0.3,4.3-0.4c0-0.1,0.1-0.3,0.1-0.4c-1.5,0.2-2.9,0.4-4.4,0.5
			C177.3,116.2,177.3,116.3,177.3,116.3z"/>
		<path class="st2" d="M47.3,126.6c-1.2,2.7-2.3,5.5-3.2,8.3c1.3,0.9,2.9,1.6,4.7,1.9c2.9,0.5,5.5-0.2,8.1-1.7
			C53.1,132.6,50,129.7,47.3,126.6z"/>
		<path class="st2" d="M164.6,128.7c-0.4,0-0.7,0-0.9,0c-11.7,1.3-23.3,2.7-35,4c-1.2,0.1-1.5,0.6-1.5,1.7c0.1,6,0,12.1,0,18.1
			c0,0.5,0,0.9,0,1.5c0.5,0,0.8-0.1,1-0.1c5.2-0.5,10.3-1.1,15.5-1.5c1.5-0.1,3.1-0.1,4.6,0.3c3.9,1.1,7.8,2.3,11.7,3.6
			c1.6-1.7,3.2-3.5,4.7-5.4C164.6,143.5,164.6,136.1,164.6,128.7z"/>
		<path class="st2" d="M115.4,150.5c-1.4-1.2-2.6-2.2-4-3.4c0,2.7,0,5,0,7.7C112.8,153.3,114.1,152,115.4,150.5z"/>
		<path class="st2" d="M40.2,154.8c3.7-0.9,7.4-1.5,11.3-0.9c0.9,0.1,1.8,0.2,2.7,0.1c5.3-0.5,10.6-1.1,15.9-1.6
			c0.7-0.1,1.4,0.1,2.1,0.1c0.6,0.1,1,0.1,1.2,0.2c0,0,0,0,0,0c0,0,0,0,0,0c0.1,0,0.2,0,0.2,0.1c1,0.3,4.4,1.4,4.9,1.5
			c1.5,0.2,3,0.7,4.4,0.6c3-0.2,6-0.7,8.9-1.1c4.6-0.8,9.2-1.2,13.7,0.7c0.2,0.1,0.5,0,0.7,0c0-6.5,0-12.9,0-19.5
			c-1.5,0.2-2.9,0.3-4.3,0.5c-13.7,1.8-27.2,4.3-40.7,7.5c-6.8,1.6-13.6,3.3-20.4,5.1C40.6,150.2,40.3,152.5,40.2,154.8z"/>
		<path class="st2" d="M122.5,123.1c0.3-0.1,0.8-0.6,0.8-0.9c0.2-5.3-0.1-10.6-1.7-15.8c-0.2-0.7-0.5-1-1.3-1
			c-2.1,0.1-4.3,0.1-6.4,0c-0.8,0-1.1,0.3-1.3,1.1c-0.4,2.1-1.1,4.1-1.3,6.2c-0.4,3.9-0.5,7.9-0.7,12.1
			C114.9,124.2,118.7,123.7,122.5,123.1z"/>
		<path class="st2" d="M120.8,141.7c-1.5-1.5-3-3.1-4.5-4.7c-1.2,1.4-2.5,3-3.9,4.7C115.5,141.7,118.1,141.7,120.8,141.7z"/>
		<path class="st2" d="M116.6,148.4c1-1.2,2.1-2.4,3.3-3.8c-2.6,0-4.9,0-7,0C114.1,145.9,115.3,147.1,116.6,148.4z"/>
		<path class="st2" d="M111.3,91.3c0.2,1.9,0.4,3.7,0.6,5.6c3.8,0,7.9,0,11.9,0c0-0.8,0-1.4,0-2c0.1-2.2,0.6-4.4,0.4-6.5
			c-0.2-2.7-1-5.3-1.5-7.9c-0.2-0.8-0.6-1-1.4-1c-2.3,0-4.6,0.1-6.9,0c-0.9,0-1.3,0.3-1.7,1.1C111.3,84,110.9,87.6,111.3,91.3z"/>
		<path class="st2" d="M111.6,139.5c0.9-1.1,1.8-2.2,2.7-3.3c0.2-0.3,0.3-0.8,0.2-1.1c-0.5-1-1.5-0.8-2.4-0.7
			c-0.3,0-0.9,0.3-0.9,0.5c-0.1,1.5,0,3,0,4.5C111.4,139.5,111.5,139.5,111.6,139.5z"/>
		<path class="st2" d="M122,140c0.1-0.1,0.2-0.2,0.3-0.2c0-2.3,0-4.6,0-7.2c-1.7,0.9-3.1,1.6-4.7,2.4
			C119.3,136.8,120.7,138.4,122,140z"/>
		<path class="st2" d="M138.3,127.1c8.8-0.8,17.6-1.6,26.4-2.4C163.7,123.8,142.8,125.9,138.3,127.1z"/>
		<path class="st2" d="M167.7,146.8c0-2.7,0.1-5.4,0.1-8.1c0.2-6.6,0.6-13.2,0.9-19.8c0.1-2.7,0.2-5.4,0.4-8.2c-1,0-1.8,0-2.7,0
			c0,0-0.1,0-0.1,0c-0.4,13.2-0.8,26.4-1.1,39.6C166,149.1,166.9,148,167.7,146.8z"/>
		<path class="st2" d="M122,154.8c0.1-0.1,0.2-0.2,0.4-0.3c0-3,0-6.1,0-9.1c-0.1-0.1-0.2-0.1-0.2-0.1c-1.4,1.7-2.8,3.5-4.4,5.4
			C119.2,152.1,120.6,153.4,122,154.8z"/>
		<path class="st2" d="M124.5,123.8c1.1-0.1,2.2-0.2,3.3-0.4c9.4-1.3,18.9-2.5,28.3-3.8c2.9-0.4,5.9-0.8,8.8-1.2
			c0.7-0.1,1.2-0.3,0.6-1.2c-13.7,2.1-27.3,4.2-41,6.3C124.5,123.6,124.5,123.7,124.5,123.8z"/>
		<path class="st2" d="M118.9,155.7c-1-1.2-1.7-2.2-2.5-3.2c-1,1.2-1.9,2.2-2.8,3.3c-0.1,0.2-0.2,0.3-0.5,0.8
			C115.1,156.3,116.8,156,118.9,155.7z"/>
		<path class="st2" d="M122.3,128.9c1,0.5,2,0.3,3,0.1c0-0.2,0-0.3,0.1-0.5c-1,0-2,0-3,0C122.3,128.7,122.3,128.8,122.3,128.9z"/>
		<path class="st2" d="M42.6,139.8c1.9-0.6,3.8-1.2,5.7-1.8c-1.6-0.7-3.1-1.5-4.5-2.5C43.3,137,42.9,138.4,42.6,139.8z"/>
		<path class="st1" d="M153.3,154.6c-2.8-0.9-5.5-2-8.5-1.8c-5.5,0.5-11.1,1.1-16.6,1.6c-0.7,0.1-1,0.4-1,1.1c0,0.6,0,1.2,0,1.9
			c1.6-0.2,3.1-0.4,4.5-0.6c3.4-0.3,6.8-1.5,10.3-0.4c1.2,0.4,2.4,0.6,3.6,0.9c3.9,0.8,7.7,2.3,11.8,1.5c0,0,0.1,0,0.1,0
			c0.7-0.7,1.4-1.4,2.1-2.1C157.5,156,155.4,155.3,153.3,154.6z"/>
		<path class="st1" d="M105.6,154.9c-2.8-0.7-5.7-1.8-8.7-1.4c-3.7,0.4-7.5,1-11.2,1.5c-1.1,0.2-2.3,0.4-3.7,0.6
			c2.3,1.3,4.3,2.4,6.3,3.5c0,0.1-0.1,0.1-0.1,0.1c-3.6-1.7-10.8-4.5-14.6-6.3c-0.4,0.3-8,0.5-10.3,0.7c-4,0.3-8,0.9-12,0.7
			c-3.5-0.2-6.8,0.1-10.2,1.1c-0.7,0.2-1.4,0.4-2.3,0.7c2,2.4,2.7,5.1,3.4,7.8c0.6,2,2.1,2.9,4.1,2.4c1.2-0.3,2-0.1,3.1,0.3
			c0.8,0.3,1.8,0.4,2.7,0.3c1.5-0.2,2.9-0.7,4.4-1.1c1-0.3,2-0.2,2.8,0.4c1.9,1.5,3.9,1.6,6,0.7c1.6-0.7,3.2-0.5,4.8,0.3
			c1.3,0.7,2.7,1,4.2,0.5c0.7-0.2,1.6-0.1,2.2,0.2c1.8,0.7,3.5,0.6,5.3,0c1-0.3,2-0.6,2.9-1c2.5-1,4.9-1.3,7.5-0.5
			c1,0.3,2,0.5,3,0.7c1.9,0.4,3.7,0.8,5.6,1.1c0.1-0.1,0.1-0.2,0.2-0.3c-0.8-0.7-1.5-1.4-2.3-2.1c0.1,0,0.1-0.1,0.1-0.1
			c1,0.7,2.1,1.3,3.2,2.1c0.1-0.9,0.1-1.7,0.3-2.3c0.1-0.4,0.5-0.9,0.8-0.9c0.8-0.1,0.9-0.5,0.9-1.1c0-0.6,0-1.1,0-1.7
			c0-2.1,0-2.1,2-2.5c0-1.3,0-2.5,0-3.8C106.1,155.3,105.8,155,105.6,154.9z"/>
	</g>
	<g>
		<path class="st1" d="M228.1,68.1v25.2h-13.3V41.9h13.7l7.8,23.9V41.9h13.2v51.4h-12.6L228.1,68.1z"/>
		<path class="st1" d="M253.9,74.6c0-10.4,5.2-19.5,16.1-19.5c11,0,16.3,9.1,16.3,19.5s-5.2,19.6-16.3,19.6
			C259.1,94.2,253.9,85,253.9,74.6z M273.8,74.6c0-5.3-0.9-8.8-3.8-8.8c-2.8,0-3.6,3.5-3.6,8.8c0,5.4,0.8,8.9,3.6,8.9
			C272.9,83.5,273.8,80,273.8,74.6z"/>
		<path class="st1" d="M319.5,41c12.8,0,18.7,11,18.7,26.6s-5.9,26.6-18.7,26.6s-18.7-11-18.7-26.6S306.7,41,319.5,41z M319.5,53
			c-3.6,0-4.9,5.8-4.9,14.6c0,8.7,1.2,14.6,4.9,14.6s4.9-5.9,4.9-14.6C324.3,58.8,323.1,53,319.5,53z"/>
		<path class="st1" d="M360.4,68.8c0-1.9-0.7-3-2.2-3c-1.7,0-3,1.9-3.6,3.6v23.8h-12.2V56h12.2v4.5c1.4-2.7,5.6-5.4,9.3-5.4
			c6.3,0,8.8,3.8,8.8,8.9v29.3h-12.2V68.8z"/>
		<path class="st0" d="M247.8,126.9l-7.3,28.6h-5.8l-7.1-28.6v28.6h-12.9v-51.4h16.9l5.9,24.5l6.2-24.5h16.6v51.4h-12.6V126.9z"/>
		<path class="st0" d="M281.1,117.4c10.5,0,15.2,7.9,15.2,19.3v4.2h-19.7c0.1,3,1.9,5.8,6.5,5.8c2.1,0,4.5-1.1,6.2-2.9l5.3,6.9
			c-3.4,3.9-8.5,5.7-13,5.7c-10.6,0-16.7-7.9-16.7-19.6C265,126.1,270.6,117.4,281.1,117.4z M276.6,132.6h8.2c0-2.6-0.7-5.5-4.1-5.5
			C277.4,127.2,276.6,130,276.6,132.6z"/>
		<path class="st0" d="M317.4,151.9c-1.5,2.8-5.4,4.6-8.3,4.6c-5.9,0-10.6-4.6-10.6-12.3c0-7.9,4.7-12,10.6-12
			c2.9,0,6.9,1.5,8.3,4.2v-3.2c0-3.3-2-5.5-5.5-5.5c-2.4,0-5.2,1.3-7.8,3.5l-4.2-8.5c3.6-3.9,10.3-5.2,14.7-5.2
			c8.3,0,14.8,3.9,14.8,12.6v25.5h-12.1V151.9z M317.4,142.6c-0.7-1.8-2-2.5-3.6-2.5c-2.1,0-3.3,1.5-3.3,4.2c0,2.7,1.2,4.2,3.3,4.2
			c1.6,0,2.9-0.6,3.6-2.4V142.6z"/>
		<path class="st0" d="M337.1,143.1c2.1,2,5.4,3.9,8.3,3.9c2.5,0,3.9-0.9,3.9-2.4c0-1.3-1.8-1.9-4.2-2.6
			c-4.6-1.5-11.2-3.6-11.2-12.7c0-6.2,4.5-11.9,14-11.9c4.9,0,9.6,1.9,12.9,4.6l-4.6,8.2c-1.3-1.3-4.5-3.3-8-3.3c-1.7,0-3,0.8-3,2
			c0,1.2,1.8,1.7,4.1,2.5c4.7,1.5,11.6,3.8,11.6,12.9c0,7.2-5.7,12.3-14.3,12.3c-6.6,0-11.5-2.3-14-5L337.1,143.1z"/>
		<path class="st0" d="M382.4,151.2c-1.5,2.7-5.6,5.2-9.3,5.2c-6.3,0-8.8-3.6-8.8-8.7v-29.5h12.2v24.6c0,1.9,0.7,2.9,2.2,2.9
			c1.7,0,3-1.8,3.6-3.5v-24h12.2v37.3h-12.2V151.2z"/>
		<path class="st0" d="M400,118.3h12.2v4.6c1.2-2.9,5.5-5.5,8.1-5.5V129c-0.6-0.2-1.3-0.3-2-0.3c-1.9,0-4.6,1.2-6.1,3.3v23.5H400
			V118.3z"/>
		<path class="st0" d="M438.5,117.4c10.5,0,15.2,7.9,15.2,19.3v4.2H434c0.1,3,1.9,5.8,6.5,5.8c2.1,0,4.5-1.1,6.2-2.9l5.3,6.9
			c-3.4,3.9-8.5,5.7-13,5.7c-10.6,0-16.7-7.9-16.7-19.6C422.4,126.1,428,117.4,438.5,117.4z M434,132.6h8.2c0-2.6-0.7-5.5-4.1-5.5
			C434.8,127.2,434,130,434,132.6z"/>
		<path class="st0" d="M469.7,104.1h25.9V116h-12.3v7.6h11.7v11.9h-11.7v20.1h-13.7V104.1z"/>
	</g>
</g>
</svg>
