<?xml version="1.0" encoding="utf-8"?>
<!-- Generator: Adobe Illustrator 24.0.3, SVG Export Plug-In . SVG Version: 6.00 Build 0)  -->
<svg version="1.1" id="Layer_1" xmlns="http://www.w3.org/2000/svg" xmlns:xlink="http://www.w3.org/1999/xlink" x="0px" y="0px"
	 viewBox="0 0 192.3 192.3" style="enable-background:new 0 0 192.3 192.3;" xml:space="preserve">
<style type="text/css">
	.st0{fill:#FFFFFF;}
</style>
<g>
	<g>
		<path class="st0" d="M96.2,0C43.1,0,0,43.1,0,96.2c0,53,43.1,96.2,96.2,96.2c53,0,96.2-43.1,96.2-96.2C192.3,43.1,149.2,0,96.2,0z
			 M181.6,116c-1.4,0.1-2.8,0.3-4.3,0.4c0-0.1,0-0.2,0-0.2c1.5-0.2,2.9-0.4,4.4-0.5C181.7,115.7,181.6,115.8,181.6,116z
			 M137.8,173.3c-0.1-0.1-0.2-0.2-0.3-0.3c0.1-0.1,0.1-0.2,0.1-0.4c0.4,0,0.9,0,1.3,0C138.6,172.9,138.2,173.1,137.8,173.3z
			 M50.3,170.9c20.5,0.3,41,0.6,61.5,0.9c-0.5,2.3-1,2.7-3.3,2.7c-14.3,0-28.7,0.1-43,0.1c-2.4,0-4.8,0-7.1,0c0,0.2,0,0.3,0,0.5
			c17,0,33.9,0,51.2,0c-0.8,1-1.3,1.6-1.9,2.4c0.6,0,1,0,1.3,0c6.6,0,13.2,0.1,19.8,0.1c-10.1,4-21,6.3-32.5,6.3
			C79.4,183.9,63.7,179.1,50.3,170.9z M37.7,149.2c0-0.3,0.7-0.6,1.2-0.7c0.7-0.2,1.4-0.4,2.1-0.5c6.8-1.7,13.5-3.5,20.4-5.1
			c13.4-3.1,27-5.6,40.7-7.5c1.4-0.2,2.7-0.3,4.3-0.5c0,6.6,0,13,0,19.5c-0.3,0-0.5,0.1-0.7,0c-4.5-1.9-9-1.4-13.7-0.7
			c-3,0.5-5.9,0.9-8.9,1.1c-1.4,0.1-2.9-0.3-4.4-0.6c-0.4-0.1-3.9-1.2-4.9-1.5c0,0-0.1,0-0.2-0.1c0,0,0,0,0,0c0,0,0,0,0,0
			c-0.3-0.1-0.7-0.1-1.2-0.2c-0.7,0-1.4-0.2-2.1-0.1c-5.3,0.5-10.6,1.1-15.9,1.6c-0.9,0.1-1.8,0-2.7-0.1c-3.9-0.6-7.6,0.1-11.3,0.9
			c-0.2,0.1-0.4,0.1-0.7,0.2c-0.4,0.1-0.8,0.2-1.6,0.4C37.8,153.2,37.7,151.2,37.7,149.2z M34.7,106.2c0.3-0.1,0.6-0.2,1-0.3
			c-0.2,1.5-0.3,2.7-0.5,3.9c-0.2,0.1-0.2,0.1-0.3,0.1c-4,0.3-4,0.3-5.2-3.4c-0.2-0.7-0.4-1.4-0.6-2.3c1.5,0,2.8,0.1,4,0
			c1.1-0.1,1.7,0.2,1.5,1.4C34.7,105.8,34.7,106,34.7,106.2z M108,79.9c0,26.5,0,53,0,79.5c-0.5,0-0.9,0-1.5,0
			c0.3-26.5,0.7-53,1-79.5c0.1-9.3,0.2-18.6,0.4-27.9c0.1,0,0.1,0,0.1,0C108,61.4,108,70.7,108,79.9z M106.1,159.4
			c-2,0.5-2,0.5-2,2.5c0,0.6,0,1.1,0,1.7c0,0.6-0.1,1-0.9,1.1c-0.3,0-0.7,0.5-0.8,0.9c-0.2,0.7-0.2,1.4-0.3,2.3
			c-1.2-0.8-2.2-1.4-3.2-2.1c0,0-0.1,0.1-0.1,0.1c0.8,0.7,1.5,1.4,2.3,2.1c-0.1,0.1-0.1,0.2-0.2,0.3c-1.9-0.4-3.7-0.7-5.6-1.1
			c-1-0.2-2-0.4-3-0.7c-2.6-0.9-5.1-0.6-7.5,0.5c-0.9,0.4-1.9,0.6-2.9,1c-1.8,0.6-3.5,0.8-5.3,0c-0.7-0.3-1.6-0.4-2.2-0.2
			c-1.5,0.5-2.9,0.2-4.2-0.5c-1.6-0.9-3.2-1-4.8-0.3c-2.1,0.9-4.1,0.8-6-0.7c-0.8-0.7-1.8-0.7-2.8-0.4c-1.5,0.4-2.9,0.8-4.4,1.1
			c-0.9,0.1-1.9,0-2.7-0.3c-1-0.4-1.9-0.7-3.1-0.3c-2,0.6-3.5-0.4-4.1-2.4c-0.8-2.7-1.4-5.4-3.4-7.8c0.9-0.3,1.6-0.5,2.3-0.7
			c3.3-1,6.7-1.2,10.2-1.1c4,0.2,8-0.4,12-0.7c2.3-0.2,9.9-0.4,10.3-0.7c3.8,1.7,10.9,4.6,14.6,6.3c0-0.1,0.1-0.1,0.1-0.1
			c-2-1.1-4-2.2-6.3-3.5c1.4-0.2,2.5-0.4,3.7-0.6c3.7-0.5,7.5-1,11.2-1.5c3-0.4,5.8,0.7,8.7,1.4c0.2,0.1,0.5,0.4,0.5,0.7
			C106.1,156.8,106.1,158.1,106.1,159.4z M97.7,64.7c3-8.4,5.9-16.8,8.8-25.2c0.1-0.4,0.3-0.8,0.7-1.1c0,0.5,0.1,0.9,0.1,1.3
			c-0.1,11.4-0.2,22.8-0.3,34.2c0,1-0.3,2-0.7,3c-0.5,1.2-1,2.4-1.5,3.6c-3.3,7.9-6.6,15.8-10.2,23.5c-4.4,9.4-10.7,17.5-18.2,24.7
			c-3,2.9-6.6,3.5-10.3,4.5c-1.4,0.4-2.9,0.6-4.6,1c0.3-0.5,0.5-0.7,0.6-0.9c9.8-10.8,17-23.3,23.3-36.4c1.9-3.9,3.6-8,5.1-12
			C93,78.2,95.3,71.4,97.7,64.7z M106.5,81c0,0.4,0.1,0.8,0.1,1.2c0,13.9,0,27.8,0,41.7c0,0.8-0.2,1.2-1,1.4
			c-9.4,1.8-18.9,3.6-28.3,5.4c-0.4,0.1-0.8,0.1-1.1,0.1c-0.1-0.1-0.1-0.2-0.2-0.2c0.8-0.8,1.7-1.5,2.5-2.3
			c6.6-6.4,11.9-13.8,16-21.9c3.9-7.7,7.3-15.7,11-23.5C105.8,82.2,106,81.6,106.5,81z M56.9,135c-2.6,1.6-5.3,2.2-8.1,1.7
			c-1.8-0.3-3.4-1-4.7-1.9c-2.4-1.6-4.1-4.1-5.4-7c-2-4.6-2.5-9.4-2-14.3c0.2-2.1,0.3-4.2,0.5-6.7c2.2,7.5,5.4,14.1,10.1,19.7
			C50,129.7,53.1,132.6,56.9,135z M55.8,136.6c-0.7,1.1-5.9,2.3-6.8,1.6C51.2,137.7,53.3,137.2,55.8,136.6z M37.6,142.4
			c-1.4,0.6-2.9,1.2-4.3,1.8c-0.1-0.2-0.2-0.4-0.2-0.6c1.4-0.6,2.9-1.2,4.3-1.8C37.5,142,37.5,142.2,37.6,142.4z M48.3,138
			c-1.9,0.6-3.8,1.2-5.7,1.8c-1.6,0.5-3.2,1-4.8,1.5c0-4.1,0-8.2,0-12.5c1.6,2.8,3.6,5.1,6.1,6.8C45.1,136.5,46.6,137.4,48.3,138z
			 M29.4,124c0.6,0,1.1,0,1.8,0c-0.6,2.4-1.1,4.7-1.6,7.2C28.2,129.5,28.2,128.8,29.4,124z M28.8,114c0-0.2,0.6-0.5,0.9-0.5
			c0.4,0.1,0.9,0.3,1.1,0.6c0.6,1.2,1.2,2.4,1.6,3.6c0.7,1.9,0.1,2.8-2.1,2.8c-1.4,0.4-2.1-0.6-2.1-1.8
			C28.1,117.1,28.5,115.5,28.8,114z M32.9,115.5c-0.4-0.8-0.6-1.2-1-1.9c0.5,0,0.9-0.1,1.6-0.1C33.3,114.2,33.1,114.7,32.9,115.5z
			 M29.7,132.3c0.3-1.2,0.6-2.2,0.9-3.2c0.3-1.2,0.6-2.4,0.9-3.6c0.2-0.8,0.2-1.5,1.4-1.5c1.2,0,1.3,0.6,1.6,1.5c0.7,2,0.8,4,0,6
			c-0.2,0.6-0.5,0.9-1.2,0.9C32.2,132.2,31,132.3,29.7,132.3z M34.6,120.1c-1.9-1.8-2-3.9-0.1-6.2C36.1,116,35.6,118.1,34.6,120.1z
			 M28.4,141.1c0-0.2,0.1-0.3,0.1-0.5c1.1-5.1,0-3.8,4.9-4c0.7,0,1,0.3,1.1,1c0,0.1,0,0.2,0,0.3c0.6,4.5,0.6,4.5-3.6,6.3
			c-0.8,0.4-1.7,0.8-2.9,1.3C28.1,143.7,28.2,142.4,28.4,141.1z M42.3,140.9c-0.3,0.1-0.7,0.2-1,0.3c-0.1-0.2-0.1-0.4-0.2-0.5
			c0.4-0.2,0.9-0.3,1.3-0.5c1.9-0.6,3.8-1.1,5.8-1.7c0.1,0.2,0.1,0.4,0.2,0.6C46.4,139.7,44.3,140.3,42.3,140.9z M26.4,149.2
			c5-1.7,10.1-3.3,15.1-4.7c17.4-5.1,35.2-8.9,53.3-11.6c-6.1,1.2-12.3,2.4-18.4,3.7c-11.8,2.5-23.5,5.3-35.1,8.7
			c-4.3,1.2-8.5,2.5-12.7,3.9c-0.9,0.3-1.4,0.5-1.6,0.8C26.8,149.7,26.6,149.5,26.4,149.2z M129.3,65.8c3.2,5.1,6.6,10.1,10,15.1
			c6.9,9.9,14.3,19.4,22.5,28.4c0.8,0.9,1.5,1.9,2.5,2.6c1.7,1.3,1.6,3,1.3,4.9c-12.5,1.8-24.9,3.6-37.5,5.4c0-14.4,0-28.7,0-43.1
			c0-4.9,0-9.8,0-14.7c0.1,0,0.2-0.1,0.3-0.1C128.7,64.9,129,65.3,129.3,65.8z M165.5,117.2c0.6,0.9,0.1,1.1-0.6,1.2
			c-2.9,0.4-5.9,0.8-8.8,1.2c-9.4,1.3-18.9,2.5-28.3,3.8c-1.1,0.2-2.2,0.2-3.3,0.4c0-0.1,0-0.2,0-0.2
			C138.1,121.4,151.8,119.3,165.5,117.2z M138.3,127.1c4.4-1.2,25.3-3.3,26.4-2.4C155.9,125.5,147.1,126.3,138.3,127.1z
			 M134.7,172.7c-0.1,1.3-0.7,1.7-1.8,1.6c-3-0.1-5.9,0-8.9,0c-0.5,0-0.9,0-1.4,0c-0.4-1.2-0.1-1.6,1-1.6
			C127.3,172.7,131,172.7,134.7,172.7z M126,176.2c-0.6-0.7-2.2,0.5-2.2-1.2c1.4,0,2.8,0,4.1,0c0.1,0.1,0.1,0.2,0.2,0.3
			C127.3,175.6,126.2,176.4,126,176.2z M112.8,66.6c1-2.4,2-4.7,3-7.1c0.3-0.7,0.7-1.1,1.5-1c1.7,0.1,3.3,0,5,0.1c0.4,0,1,0.5,1,0.8
			c0.1,4.4,0,8.8,0,13.3c-2.9,0-5.6,0-8.2,0c-0.5,0-0.9,0-1.4,0c-1.8,0-2.4-0.6-2.1-2.5C111.9,68.9,112.4,67.7,112.8,66.6z
			 M119.4,49.3c0.7,0.8,1.2,1.4,2,2.3c-1.1,0-1.9,0-2.8,0C118.9,50.8,119.1,50.2,119.4,49.3z M116.3,137.1c1.6,1.6,3,3.1,4.5,4.7
			c-2.7,0-5.4,0-8.4,0C113.8,140,115.1,138.5,116.3,137.1z M122.3,139.7c-0.1,0.1-0.2,0.1-0.3,0.2c-1.4-1.6-2.8-3.2-4.4-5
			c1.6-0.8,3-1.6,4.7-2.4C122.3,135.1,122.3,137.4,122.3,139.7z M119.9,144.6c-1.2,1.4-2.3,2.6-3.3,3.8c-1.3-1.3-2.5-2.5-3.7-3.8
			C115.1,144.6,117.3,144.6,119.9,144.6z M122.1,145.3c0.1,0.1,0.2,0.1,0.2,0.1c0,3,0,6.1,0,9.1c-0.1,0.1-0.2,0.2-0.4,0.3
			c-1.4-1.4-2.8-2.7-4.3-4.1C119.3,148.8,120.7,147,122.1,145.3z M125.3,129c-1,0.1-2,0.3-3-0.1c0-0.1,0-0.2,0-0.4c1,0,2,0,3,0
			C125.3,128.7,125.3,128.9,125.3,129z M111.3,134.9c0-0.2,0.6-0.5,0.9-0.5c0.9,0,1.9-0.3,2.4,0.7c0.1,0.3,0,0.8-0.2,1.1
			c-0.9,1.2-1.8,2.2-2.7,3.3c-0.1,0-0.2-0.1-0.4-0.1C111.3,137.9,111.2,136.4,111.3,134.9z M111.3,147.1c1.5,1.2,2.7,2.3,4,3.4
			c-1.3,1.4-2.5,2.7-4,4.3C111.3,152.1,111.3,149.8,111.3,147.1z M113.6,155.8c0.9-1.1,1.8-2.1,2.8-3.3c0.8,1,1.5,2,2.5,3.2
			c-2,0.3-3.7,0.6-5.8,0.9C113.4,156.1,113.4,155.9,113.6,155.8z M124.2,40.2c0,3.7,0,7.5,0,11.2c-0.2,0.1-0.3,0.2-0.5,0.2
			c-1.1-1.2-2.2-2.4-3.2-3.7c-0.2-0.2-0.2-0.6-0.1-0.9c1-2.3,2.1-4.6,3.1-7C123.8,40.1,124,40.1,124.2,40.2z M122.5,39.7
			c-1,2.1-2,3.9-3.1,6.2c-1.1-2.2-2.1-4.1-3.1-6.2C118.4,39.7,120.3,39.7,122.5,39.7z M113.5,39.6c0.4,0.1,1,0.3,1.2,0.6
			c1.2,2,2.3,4,3.5,6c0.6,1,0.5,1.8,0,2.8c-1,1.9-2.2,3.2-4.6,2.7c-0.5-0.1-1,0-1.5,0c-0.1-1.3-0.4-2.5-0.4-3.7
			c0-2.3,0.1-4.6,0.3-6.9C112.2,40.4,112.5,39.5,113.5,39.6z M112.4,59.2c0.3-1.2,1.2-0.7,2.1-0.5c-1,2.4-1.9,4.7-2.8,7
			c-0.2-0.1-0.4-0.1-0.5-0.1C111.5,63.4,111.8,61.2,112.4,59.2z M112.7,80.5c0.3-0.8,0.8-1.1,1.7-1.1c2.3,0.1,4.6,0.1,6.9,0
			c0.8,0,1.2,0.2,1.4,1c0.5,2.6,1.3,5.3,1.5,7.9c0.2,2.1-0.3,4.3-0.4,6.5c-0.1,0.6,0,1.3,0,2c-4,0-8,0-11.9,0
			c-0.2-1.9-0.4-3.7-0.6-5.6C110.9,87.6,111.3,84,112.7,80.5z M111.3,112.7c0.2-2.1,0.9-4.1,1.3-6.2c0.2-0.8,0.5-1.1,1.3-1.1
			c2.1,0.1,4.3,0.1,6.4,0c0.8,0,1.1,0.3,1.3,1c1.6,5.2,1.9,10.4,1.7,15.8c0,0.3-0.5,0.8-0.8,0.9c-3.8,0.6-7.6,1.1-11.9,1.7
			C110.8,120.6,110.9,116.6,111.3,112.7z M157.5,158.8c0,0-0.1,0-0.1,0c-4.1,0.8-7.9-0.6-11.8-1.5c-1.2-0.3-2.4-0.5-3.6-0.9
			c-3.5-1.1-6.9,0.1-10.3,0.4c-1.4,0.1-2.9,0.4-4.5,0.6c0-0.7,0-1.3,0-1.9c0-0.7,0.3-1,1-1.1c5.5-0.5,11.1-1.1,16.6-1.6
			c3-0.3,5.7,0.9,8.5,1.8c2.1,0.7,4.2,1.4,6.3,2.1C158.9,157.4,158.2,158.1,157.5,158.8z M148.2,152.8c-1.4-0.4-3.1-0.4-4.6-0.3
			c-5.2,0.4-10.3,1-15.5,1.5c-0.3,0-0.5,0.1-1,0.1c0-0.6,0-1.1,0-1.5c0-6,0-12.1,0-18.1c0-1.2,0.3-1.6,1.5-1.7
			c11.7-1.3,23.3-2.6,35-4c0.3,0,0.5,0,0.9,0c0,7.4,0,14.8,0,22.3c-1.5,1.8-3,3.6-4.7,5.4C156,155.1,152.2,153.9,148.2,152.8z
			 M166.3,110.6c0,0,0.1,0,0.1,0c0.9,0,1.7,0,2.7,0c-0.1,2.8-0.3,5.5-0.4,8.2c-0.3,6.6-0.7,13.2-0.9,19.8c-0.1,2.7-0.1,5.4-0.1,8.1
			c-0.8,1.2-1.7,2.3-2.6,3.5C165.5,137,165.9,123.9,166.3,110.6z M171.1,108.3c-0.7,0-1.6,0-2.6,0c-0.2,0-0.4,0.1-0.4,0.2
			c0,1.1-0.9,1.4-1.6,1.8c-0.3,0.2-0.6,0.4-0.8,0.8c-0.3-0.2-0.5-0.3-0.6-0.5c-7.8-9.4-15.8-18.7-23.4-28.2
			c-0.3-0.4-0.6-0.7-0.8-1.1c-4.8-6.1-8.8-12.7-12.2-19.7c-0.3-0.6-0.5-1.2-0.6-1.8c-0.3-5.7-0.6-11.4-0.8-17.1
			c-0.1-2.3,0-4.7,0.3-7.2c0.3,0.3,0.5,0.7,0.7,1c10,16.2,20.7,32,32.6,46.9c3.7,4.6,7.5,9.1,11.4,13.5c3.5,3.9,7.1,7.7,10.8,11.4
			c-0.3,2.3-0.7,4.6-1.2,6.8c-2.7,0-5.4,0-8.2,0c-0.1-1.3-0.1-2.5-0.3-3.6c-0.1-0.6-0.6-1.1-1-1.6
			C172,109.3,171.6,108.9,171.1,108.3z M183.4,105.5c-7.1-7.3-14-14.8-20.5-22.7c-12.9-15.4-24.5-31.6-34.4-49.1
			c-0.9-1.6-1.7-3.2-1.1-5.2c0.1-0.3,0-0.7,0-1c-0.7,0-1.2,0-1.8,0c-0.1,0.7-0.2,1.4-0.4,2.1c-0.5,2.1-0.9,2.7-3,2.9
			c-2.5,0.2-5.1,0.1-7.7,0c-2.1-0.1-3.3-1.2-3.8-3.2c-0.2-0.6-0.5-1.1-0.9-2c-0.3,0.7-0.5,1-0.6,1.3c-4.8,13.6-9.5,27.3-14.5,40.8
			C92.5,75,90.3,80.5,88,86c-4.3,10-9,19.9-14.3,29.5c-3.8,6.8-8.2,13-14.2,18.1c-0.7,0.6-1.2,0.8-2.1,0.2c-3.6-2.4-6.8-5.1-9.6-8.3
			c-1-1.2-2-2.4-3-3.7c-3.8-5.3-5.6-11.4-7.2-17.6c-0.4-1.4-0.7-2.7-1.1-4.3c-3.3,2.6-6.3,2.1-9.3-0.7c-0.4,1.3-1,2.5-1.1,3.6
			c-0.4,4.8-0.7,9.6-1,14.4c0,0.3,0.1,0.6,0.1,0.9c0.2,0,0.3,0,0.5,0c0.3-4.3,0.5-8.5,0.8-12.8c0.2,0.8,0.2,1.7,0.2,2.5
			c0,12,0,24.1,0,36.1c0,0.7,0.2,1.4,0.3,2.2c-0.4,0.1-0.9,0.3-1.4,0.5c0-2,0-3.8,0-5.7c0-6.4,0-12.9,0-19.3c0-0.5-0.3-0.9-0.4-1.3
			c-0.2,0-0.3,0.1-0.5,0.1c-0.2,1.3-0.4,2.6-0.6,3.8c0.1,0,0.1,0,0.2,0c0.2-0.8,0.5-1.5,0.8-2.4c0.1,0.3,0.1,0.3,0.1,0.4
			c0,7.6,0,15.3,0,22.9c0,0.3-0.1,0.7-0.2,0.8c-0.2,0.1-0.3,0.1-0.5,0.2c-10-14.2-15.8-31.5-15.8-50.1c0-48.4,39.3-87.7,87.7-87.7
			c48.4,0,87.7,39.3,87.7,87.7C183.9,99.3,183.7,102.4,183.4,105.5z"/>
	</g>
</g>
</svg>
